<?xml version="1.0" encoding="UTF-8" standalone="no"?>
<!-- Generator: Adobe Illustrator 27.5.0, SVG Export Plug-In . SVG Version: 6.00 Build 0)  -->

<svg
   version="1.1"
   id="Capa_1"
   x="0px"
   y="0px"
   viewBox="0 0 792 612"
   style="enable-background:new 0 0 792 612;"
   xml:space="preserve"
   sodipodi:docname="Logotipo_Atotonilco24-27_Mesa de trabajo 2.svg"
   inkscape:export-filename="Logotipo_Atotonilco24-27_Mesa de trabajo 2.svg"
   inkscape:export-xdpi="96"
   inkscape:export-ydpi="96"
   inkscape:version="1.4 (e7c3feb1, 2024-10-09)"
   xmlns:inkscape="http://www.inkscape.org/namespaces/inkscape"
   xmlns:sodipodi="http://sodipodi.sourceforge.net/DTD/sodipodi-0.dtd"
   xmlns="http://www.w3.org/2000/svg"
   xmlns:svg="http://www.w3.org/2000/svg"><defs
   id="defs63" /><sodipodi:namedview
   id="namedview63"
   pagecolor="#ffffff"
   bordercolor="#000000"
   borderopacity="0.25"
   inkscape:showpageshadow="2"
   inkscape:pageopacity="0.0"
   inkscape:pagecheckerboard="0"
   inkscape:deskcolor="#d1d1d1"
   inkscape:zoom="0.7914796"
   inkscape:cx="312.70547"
   inkscape:cy="385.35421"
   inkscape:window-width="1920"
   inkscape:window-height="1027"
   inkscape:window-x="0"
   inkscape:window-y="25"
   inkscape:window-maximized="1"
   inkscape:current-layer="Capa_1" />
<style
   type="text/css"
   id="style1">
	.st0{fill:#BE1622;}
	.st1{fill:#9D9D9C;}
	.st2{fill:#706F6F;}
	.st3{fill:none;}
	.st4{fill:#FFFFFF;}
</style>
<g
   id="g11"
   inkscape:export-filename="atotonilco.svg"
   inkscape:export-xdpi="96"
   inkscape:export-ydpi="96">
	<g
   id="g4">
		<path
   class="st0"
   d="M297.24,248.63c-0.85-1.61-1.99-2.93-3.44-3.98c-1.45-1.05-3.3-1.57-5.55-1.57c-3.62,0-6.82,1.11-9.59,3.32    c-2.78,2.21-5.13,4.93-7.06,8.14c-1.93,3.22-3.4,6.68-4.41,10.38c-0.6,2.21-1,4.28-1.24,6.26c-0.41,0.6-0.83,1.22-1.29,1.88    c-1.49,2.13-3.14,4.16-4.95,6.09c-1.81,1.93-3.7,3.6-5.67,5.01c-1.97,1.41-3.88,2.11-5.73,2.11c-1.61,0-2.92-0.97-3.92-2.9    c-1.01-1.93-1.77-4.18-2.29-6.76c-0.52-2.58-0.88-5.13-1.08-7.66c-0.21-2.53-0.31-4.41-0.31-5.61c0-0.32,0-0.76,0-1.33    c0-0.56,0.08-1,0.24-1.33c0.17-0.4,0.42-0.82,0.79-1.27c0.36-0.44,0.7-0.86,1.03-1.27c0.56-0.8,1.13-1.59,1.69-2.35    c0.57-0.76,1.09-1.59,1.57-2.47c2.01-3.3,3.94-6.82,5.79-10.56c1.85-3.74,3.26-7.46,4.22-11.16c0.48-0.08,1.21-0.24,2.18-0.48    c0.97-0.24,1.97-0.5,3.02-0.78c1.04-0.28,2.01-0.56,2.9-0.85c0.88-0.28,1.49-0.5,1.81-0.66c0.48-0.32,0.86-0.62,1.14-0.9    c0.28-0.28,0.42-0.74,0.42-1.39c0-1.05-0.57-1.57-1.69-1.57c-1.37,0-2.73,0.12-4.1,0.36c-1.37,0.24-2.73,0.44-4.1,0.6    c0.88-3.06,1.54-6.2,1.99-9.41c0.44-3.22,0.66-6.4,0.66-9.54c0-0.88-0.04-1.95-0.12-3.2c-0.08-1.25-0.3-2.43-0.67-3.56    c-0.36-1.13-0.91-2.09-1.63-2.9c-0.72-0.8-1.73-1.21-3.02-1.21c-2.82,0-5.37,1.29-7.67,3.86c-2.29,2.58-4.33,5.65-6.09,9.23    c-1.77,3.58-3.26,7.2-4.47,10.86c-1.21,3.66-2.13,6.58-2.78,8.75c-1.28,0.08-2.63,0.36-4.04,0.85c-1.41,0.48-2.11,1.53-2.11,3.14    c0,1.93,0.96,2.9,2.89,2.9c0.88,0,1.73-0.12,2.53-0.36c-0.8,3.86-1.35,7.78-1.63,11.77c-0.28,3.98-0.42,7.95-0.42,11.89    c0,1.53,0.08,3.44,0.24,5.73c0.16,2.3,0.44,4.73,0.84,7.3c0.41,2.58,0.97,5.15,1.69,7.72s1.63,4.89,2.72,6.94    c1.08,2.05,2.41,3.72,3.98,5.01c1.57,1.29,3.39,1.93,5.49,1.93c2.41,0,4.86-0.78,7.36-2.35c2.49-1.57,4.87-3.48,7.12-5.73    c2.01-2.01,3.84-4.13,5.53-6.36c0.07,0.47,0.16,0.94,0.26,1.41c0.41,1.93,1.05,3.66,1.93,5.19c0.88,1.53,2.07,2.8,3.56,3.8    c1.49,1,3.32,1.51,5.49,1.51c1.69,0,3.34-0.3,4.95-0.9c1.61-0.6,3.09-1.35,4.47-2.23c2.33-1.53,4.3-3.38,5.91-5.55    c1.61-2.17,2.93-4.51,3.98-7c1.04-2.49,1.81-5.09,2.29-7.78c0.48-2.7,0.72-5.37,0.72-8.03c0-1.85-0.18-3.74-0.54-5.67    C298.68,252.01,298.08,250.24,297.24,248.63z M243.89,221.84c0.77-2.81,1.71-5.69,2.83-8.63c1.13-2.94,2.37-5.51,3.74-7.73    c1.37-2.21,2.73-3.32,4.11-3.32c0.32,0,0.56,0.16,0.72,0.48c0.16,0.32,0.28,0.68,0.36,1.08c0.08,0.4,0.12,0.8,0.12,1.21    c0,0.4,0,0.68,0,0.85c0,3.22-0.32,6.72-0.96,10.5c-0.65,3.78-1.45,7.2-2.42,10.26c-1.61,0.4-3.26,0.66-4.95,0.78    c-1.69,0.12-3.34,0.3-4.94,0.54C242.66,226.67,243.12,224.65,243.89,221.84z M239.73,253.7c0.24-3.22,0.46-6.46,0.66-9.72    c0.2-3.26,0.67-6.46,1.39-9.59c1.37-0.4,2.78-0.66,4.23-0.78c1.44-0.12,2.89-0.34,4.34-0.66c-0.41,1.45-1.01,3.12-1.81,5.01    c-0.81,1.89-1.72,3.82-2.72,5.79c-1.01,1.97-2.05,3.85-3.14,5.61C241.6,251.13,240.61,252.58,239.73,253.7z M294.04,267.64    c-0.32,1.97-0.83,3.88-1.51,5.73c-0.68,1.85-1.57,3.6-2.66,5.25c-1.08,1.65-2.39,3.08-3.92,4.28c-0.81,0.65-1.67,1.19-2.6,1.63    s-1.91,0.66-2.95,0.66c-1.21,0-2.22-0.34-3.02-1.03c-0.81-0.68-1.43-1.51-1.87-2.48c-0.44-0.96-0.74-2.03-0.9-3.2    c-0.17-1.17-0.24-2.23-0.24-3.2c0-1.85,0.3-4.14,0.9-6.88c0.61-2.73,1.49-5.39,2.66-7.97c1.16-2.57,2.61-4.79,4.34-6.64    c1.73-1.85,3.72-2.78,5.98-2.78c1.28,0,2.33,0.38,3.13,1.15c0.81,0.76,1.45,1.69,1.93,2.78c0.48,1.08,0.8,2.27,0.97,3.56    c0.16,1.29,0.24,2.41,0.24,3.38C294.52,263.76,294.36,265.67,294.04,267.64z"
   id="path1" />
		<path
   class="st0"
   d="M373.15,248.63c-0.85-1.61-1.99-2.93-3.44-3.98c-1.45-1.05-3.3-1.57-5.55-1.57c-3.62,0-6.82,1.11-9.59,3.32    c-2.78,2.21-5.13,4.93-7.06,8.14c-1.93,3.22-3.4,6.68-4.41,10.38c-0.6,2.21-1,4.28-1.24,6.26c-0.41,0.6-0.83,1.22-1.29,1.88    c-1.49,2.13-3.14,4.16-4.95,6.09c-1.81,1.93-3.7,3.6-5.67,5.01c-1.97,1.41-3.88,2.11-5.73,2.11c-1.61,0-2.92-0.97-3.92-2.9    c-1.01-1.93-1.77-4.18-2.29-6.76s-0.88-5.13-1.08-7.66c-0.21-2.53-0.31-4.41-0.31-5.61c0-0.32,0-0.76,0-1.33    c0-0.56,0.08-1,0.24-1.33c0.16-0.4,0.42-0.82,0.79-1.27c0.36-0.44,0.7-0.86,1.03-1.27c0.56-0.8,1.13-1.59,1.69-2.35    c0.57-0.76,1.09-1.59,1.57-2.47c2.01-3.3,3.94-6.82,5.79-10.56c1.85-3.74,3.26-7.46,4.22-11.16c0.48-0.08,1.21-0.24,2.17-0.48    c0.97-0.24,1.97-0.5,3.02-0.78c1.04-0.28,2.01-0.56,2.9-0.85c0.88-0.28,1.49-0.5,1.81-0.66c0.48-0.32,0.86-0.62,1.14-0.9    c0.28-0.28,0.42-0.74,0.42-1.39c0-1.05-0.57-1.57-1.69-1.57c-1.37,0-2.73,0.12-4.1,0.36c-1.37,0.24-2.73,0.44-4.1,0.6    c0.88-3.06,1.54-6.2,1.99-9.41c0.44-3.22,0.66-6.4,0.66-9.54c0-0.88-0.04-1.95-0.12-3.2c-0.08-1.25-0.3-2.43-0.67-3.56    c-0.36-1.13-0.91-2.09-1.63-2.9c-0.72-0.8-1.73-1.21-3.02-1.21c-2.82,0-5.37,1.29-7.67,3.86c-2.29,2.58-4.33,5.65-6.09,9.23    c-1.77,3.58-3.26,7.2-4.47,10.86c-1.21,3.66-2.13,6.58-2.78,8.75c-1.28,0.08-2.63,0.36-4.04,0.85c-1.41,0.48-2.11,1.53-2.11,3.14    c0,1.93,0.96,2.9,2.89,2.9c0.88,0,1.73-0.12,2.53-0.36c-0.8,3.86-1.35,7.78-1.63,11.77c-0.28,3.98-0.42,7.95-0.42,11.89    c0,1.53,0.08,3.44,0.24,5.73c0.16,2.3,0.44,4.73,0.84,7.3c0.41,2.58,0.97,5.15,1.69,7.72s1.63,4.89,2.72,6.94    c1.08,2.05,2.41,3.72,3.98,5.01c1.57,1.29,3.39,1.93,5.49,1.93c2.41,0,4.86-0.78,7.36-2.35c2.49-1.57,4.87-3.48,7.12-5.73    c2.01-2.01,3.84-4.13,5.53-6.36c0.07,0.47,0.16,0.94,0.26,1.41c0.41,1.93,1.05,3.66,1.93,5.19c0.88,1.53,2.07,2.8,3.56,3.8    c1.49,1,3.32,1.51,5.49,1.51c1.69,0,3.34-0.3,4.95-0.9c1.61-0.6,3.09-1.35,4.47-2.23c2.33-1.53,4.3-3.38,5.91-5.55    c1.61-2.17,2.93-4.51,3.98-7c1.04-2.49,1.81-5.09,2.29-7.78c0.48-2.7,0.72-5.37,0.72-8.03c0-1.85-0.18-3.74-0.54-5.67    C374.6,252.01,374,250.24,373.15,248.63z M319.8,221.84c0.77-2.81,1.71-5.69,2.83-8.63c1.13-2.94,2.37-5.51,3.74-7.73    c1.37-2.21,2.73-3.32,4.11-3.32c0.32,0,0.56,0.16,0.72,0.48c0.16,0.32,0.28,0.68,0.36,1.08c0.08,0.4,0.12,0.8,0.12,1.21    c0,0.4,0,0.68,0,0.85c0,3.22-0.32,6.72-0.96,10.5c-0.65,3.78-1.45,7.2-2.42,10.26c-1.61,0.4-3.26,0.66-4.95,0.78    c-1.69,0.12-3.34,0.3-4.94,0.54C318.58,226.67,319.04,224.65,319.8,221.84z M315.64,253.7c0.24-3.22,0.46-6.46,0.66-9.72    c0.2-3.26,0.67-6.46,1.39-9.59c1.37-0.4,2.78-0.66,4.23-0.78c1.44-0.12,2.89-0.34,4.34-0.66c-0.41,1.45-1.01,3.12-1.81,5.01    c-0.81,1.89-1.71,3.82-2.72,5.79c-1.01,1.97-2.05,3.85-3.14,5.61C317.51,251.13,316.53,252.58,315.64,253.7z M369.95,267.64    c-0.32,1.97-0.82,3.88-1.51,5.73c-0.68,1.85-1.57,3.6-2.66,5.25c-1.08,1.65-2.39,3.08-3.92,4.28c-0.81,0.65-1.67,1.19-2.6,1.63    c-0.93,0.44-1.91,0.66-2.95,0.66c-1.21,0-2.22-0.34-3.02-1.03c-0.81-0.68-1.43-1.51-1.87-2.48c-0.44-0.96-0.74-2.03-0.9-3.2    c-0.17-1.17-0.24-2.23-0.24-3.2c0-1.85,0.3-4.14,0.9-6.88c0.61-2.73,1.49-5.39,2.66-7.97c1.16-2.57,2.61-4.79,4.34-6.64    c1.73-1.85,3.72-2.78,5.98-2.78c1.28,0,2.33,0.38,3.13,1.15c0.81,0.76,1.45,1.69,1.93,2.78c0.48,1.08,0.8,2.27,0.97,3.56    c0.16,1.29,0.24,2.41,0.24,3.38C370.44,263.76,370.27,265.67,369.95,267.64z"
   id="path2" />
		<path
   class="st0"
   d="M446.71,240.79c1.61,0,2.98-0.66,4.1-1.99c1.12-1.33,1.69-2.79,1.69-4.41c0-1.21-0.38-2.27-1.15-3.2    c-0.76-0.93-1.79-1.39-3.08-1.39c-1.61,0-2.96,0.68-4.04,2.05c-1.08,1.37-1.63,2.82-1.63,4.34c0,1.21,0.36,2.27,1.08,3.2    C444.42,240.32,445.42,240.79,446.71,240.79z"
   id="path3" />
		<path
   class="st0"
   d="M571.68,253.94c-0.37-1.93-0.97-3.7-1.81-5.31c-0.85-1.61-1.99-2.93-3.44-3.98c-1.45-1.05-3.3-1.57-5.55-1.57    c-3.62,0-6.82,1.11-9.59,3.32c-2.78,2.21-5.13,4.93-7.06,8.14c-1.93,3.22-3.4,6.68-4.41,10.38c-0.55,2.01-0.93,3.92-1.18,5.75    c-0.83,1.18-1.71,2.34-2.68,3.48c-1.73,2.05-3.62,3.86-5.67,5.43c-2.05,1.57-4.28,2.83-6.7,3.8c-2.42,0.96-4.95,1.45-7.6,1.45    c-1.77,0-3.28-0.36-4.53-1.08c-1.25-0.72-2.26-1.69-3.02-2.9c-0.77-1.21-1.31-2.55-1.63-4.05c-0.32-1.49-0.48-2.99-0.48-4.53    c0-1.77,0.32-4.14,0.97-7.12c0.64-2.98,1.57-5.91,2.78-8.81c1.21-2.9,2.7-5.39,4.47-7.48c1.77-2.09,3.78-3.14,6.03-3.14    c1.37,0,2.19,0.5,2.47,1.51c0.28,1.01,0.42,2.07,0.42,3.2c0,1.77-0.37,3.36-1.09,4.77c-0.72,1.41-1.08,2.55-1.08,3.44    c0,0.8,0.44,1.21,1.33,1.21c1.21,0,2.22-0.36,3.02-1.09c0.81-0.72,1.41-1.61,1.81-2.65c0.41-1.05,0.68-2.15,0.85-3.32    c0.16-1.16,0.24-2.23,0.24-3.2c0-3.22-0.87-5.55-2.6-7c-1.73-1.45-4.12-2.17-7.18-2.17c-3.62,0-6.84,1.01-9.66,3.02    c-2.82,2.01-5.19,4.53-7.12,7.54c-1.93,3.02-3.38,6.32-4.34,9.9c-0.97,3.58-1.45,6.94-1.45,10.08c0,0.41,0.02,0.81,0.04,1.22    c-0.74,1.01-1.65,2.21-2.75,3.61c-1.33,1.69-2.78,3.32-4.34,4.89c-1.57,1.57-3.2,2.9-4.89,3.98c-1.69,1.09-3.26,1.63-4.71,1.63    c-1.69,0-3.02-0.76-3.98-2.29c-0.97-1.53-1.73-3.34-2.29-5.43c-0.57-2.09-0.93-4.2-1.08-6.34c-0.17-2.13-0.24-3.8-0.24-5.01    c0-0.72,0.02-1.63,0.06-2.71c0.04-1.09,0.18-1.95,0.42-2.6c0.16-0.56,0.46-1.17,0.9-1.81c0.44-0.65,0.82-1.21,1.15-1.69    c0.97-1.61,1.95-3.16,2.95-4.65c1.01-1.49,1.95-3.03,2.84-4.65c1.85-3.3,3.66-7.04,5.43-11.22c1.77-4.18,3.38-8.49,4.83-12.91    c1.44-4.42,2.61-8.85,3.49-13.27c0.89-4.43,1.33-8.53,1.33-12.31c0-1.13-0.12-2.33-0.37-3.62c-0.24-1.29-0.62-2.48-1.14-3.56    c-0.53-1.09-1.25-1.97-2.18-2.66c-0.93-0.68-2.11-1.03-3.56-1.03c-1.77,0-3.52,0.65-5.25,1.93c-1.73,1.29-3.34,2.88-4.83,4.77    c-1.49,1.89-2.8,3.84-3.92,5.85c-1.13,2.01-2.01,3.74-2.65,5.19c-3.38,7.81-5.76,15.83-7.13,24.08    c-1.37,8.25-2.05,16.6-2.05,25.04c0,1.53,0.06,3.54,0.18,6.03c0.12,2.5,0.34,5.17,0.67,8.03c0.08,0.71,0.2,1.41,0.3,2.12    c-1.48,2.17-3.13,4.28-4.94,6.33c-1.81,2.05-3.67,3.82-5.55,5.31c-1.89,1.49-3.64,2.23-5.25,2.23c-1.05,0-1.85-0.44-2.42-1.33    c-0.56-0.89-0.98-1.93-1.27-3.14c-0.28-1.21-0.44-2.42-0.48-3.62c-0.04-1.21-0.06-2.17-0.06-2.9c0-3.7,0.36-7.28,1.08-10.74    c0.24-0.88,0.57-1.91,0.97-3.08c0.4-1.17,0.81-2.33,1.21-3.5c0.4-1.17,0.74-2.29,1.03-3.38s0.42-2.03,0.42-2.83    c0-1.77-0.93-2.66-2.78-2.66c-2.58,0-4.49,0.75-5.73,2.23c-1.25,1.49-2.23,3.32-2.96,5.49c-0.64,2.09-1.23,4.53-1.75,7.3    c-0.52,2.78-0.78,5.29-0.78,7.54c0,0.41,0.01,0.85,0.02,1.29c-0.84,1.14-1.71,2.26-2.68,3.35c-1.53,1.73-3.12,3.22-4.76,4.46    c-1.65,1.25-3.28,1.87-4.89,1.87c-0.97,0-1.71-0.24-2.23-0.72c-0.52-0.48-0.9-1.09-1.14-1.81c-0.24-0.72-0.38-1.51-0.42-2.35    c-0.04-0.84-0.06-1.63-0.06-2.35c0-2.82,0.08-5.63,0.24-8.45c0.16-2.82,0.24-5.63,0.24-8.45c0-0.88-0.04-1.97-0.12-3.26    c-0.08-1.28-0.3-2.57-0.66-3.86c-0.37-1.29-0.91-2.37-1.63-3.26c-0.72-0.88-1.69-1.33-2.89-1.33c-1.53,0-3.32,0.89-5.37,2.65    c-2.05,1.77-4.08,3.82-6.09,6.16c-2.02,2.34-3.88,4.71-5.61,7.12c-1.73,2.41-3.04,4.27-3.92,5.55c0.32-2.33,0.72-4.66,1.21-7    c0.48-2.33,1.17-4.63,2.05-6.88c0.73-1.93,1.43-4.04,2.11-6.34c0.68-2.29,1.03-4.48,1.03-6.58c0-1.29-0.26-2.29-0.78-3.02    s-1.47-1.09-2.83-1.09c-1.53,0-3,0.6-4.4,1.81c-1.41,1.21-2.27,2.53-2.6,3.98c-0.4,1.85-0.77,3.74-1.08,5.68    c-0.32,1.93-0.68,3.82-1.08,5.67c-1.21,5.79-2.44,11.83-3.68,18.1c-1.25,6.28-1.87,12.39-1.87,18.35c0,0.8,0.2,1.51,0.61,2.11    c0.4,0.6,1.04,0.91,1.93,0.91c1.13,0,2.11-0.4,2.95-1.21c0.85-0.8,1.51-1.69,1.99-2.65c1.37-3.06,2.78-6.06,4.23-8.99    c1.45-2.93,3.06-5.81,4.83-8.63c1.45-2.33,3.06-4.79,4.83-7.36c1.77-2.57,3.67-4.83,5.67-6.76c0.32-0.32,0.77-0.72,1.33-1.21    c0.57-0.48,1.05-0.72,1.45-0.72c0.48,0,0.78,0.32,0.91,0.97c0.12,0.65,0.18,1.13,0.18,1.45c0,2.34-0.08,4.63-0.24,6.88    c-0.16,2.25-0.24,4.55-0.24,6.88c0,1.53,0.06,3.22,0.18,5.07c0.12,1.85,0.48,3.58,1.08,5.19c0.61,1.61,1.49,2.96,2.66,4.04    c1.17,1.09,2.79,1.63,4.89,1.63c2.26,0,4.57-0.72,6.94-2.17c2.37-1.45,4.63-3.22,6.76-5.31c0.55-0.54,1.08-1.09,1.6-1.64    c0.28,1.81,0.73,3.54,1.36,5.2c0.8,2.13,1.91,3.94,3.32,5.43c1.41,1.49,3.32,2.23,5.73,2.23c2.17,0,4.38-0.7,6.64-2.11    c2.25-1.41,4.44-3.12,6.58-5.13c2.13-2.01,4.08-4.13,5.86-6.34c0.09-0.12,0.17-0.22,0.26-0.33c0.03,0.15,0.06,0.3,0.09,0.46    c0.64,2.86,1.53,5.43,2.66,7.73c1.12,2.29,2.47,4.16,4.04,5.61c1.57,1.45,3.48,2.17,5.73,2.17c2.49,0,4.99-0.78,7.48-2.35    c2.49-1.57,4.86-3.48,7.12-5.73c2.06-2.06,3.92-4.26,5.61-6.58c0.57,2.15,1.43,4.13,2.59,5.92c1.29,1.97,2.92,3.58,4.89,4.83    c1.97,1.25,4.33,1.87,7.06,1.87c3.54,0,6.96-0.58,10.26-1.75c3.29-1.16,6.35-2.75,9.17-4.77c2.67-1.9,5.11-4.12,7.34-6.64    c0.1,0.75,0.22,1.52,0.38,2.3c0.41,1.93,1.05,3.66,1.93,5.19c0.88,1.53,2.07,2.8,3.56,3.8c1.49,1,3.32,1.51,5.49,1.51    c1.69,0,3.34-0.3,4.95-0.9c1.61-0.6,3.09-1.35,4.47-2.23c2.33-1.53,4.3-3.38,5.91-5.55c1.61-2.17,2.93-4.51,3.98-7    c1.04-2.49,1.81-5.09,2.29-7.78c0.48-2.7,0.72-5.37,0.72-8.03C572.22,257.77,572.04,255.87,571.68,253.94z M471.57,247.3    c0-5.79,0.71-11.85,2.12-18.17c1.4-6.31,2.95-12.25,4.64-17.8c0.32-0.97,0.78-2.42,1.39-4.35c0.6-1.93,1.33-3.82,2.17-5.67    c0.85-1.85,1.83-3.48,2.96-4.89c1.13-1.41,2.33-2.11,3.62-2.11c0.48,0,0.85,0.18,1.09,0.55c0.24,0.36,0.42,0.78,0.54,1.27    c0.12,0.48,0.18,1,0.18,1.57c0,0.48,0,0.85,0,1.09c0,3.86-0.61,8.13-1.81,12.79c-1.2,4.67-2.71,9.35-4.53,14.06    c-1.81,4.71-3.82,9.26-6.03,13.64c-2.21,4.39-4.28,8.23-6.21,11.53c-0.08-0.65-0.12-1.21-0.12-1.69    C471.57,248.55,471.57,247.95,471.57,247.3z M566.67,267.64c-0.32,1.97-0.82,3.88-1.51,5.73c-0.68,1.85-1.57,3.6-2.66,5.25    c-1.08,1.65-2.39,3.08-3.92,4.28c-0.81,0.65-1.67,1.19-2.6,1.63s-1.91,0.66-2.95,0.66c-1.21,0-2.22-0.34-3.02-1.03    c-0.81-0.68-1.43-1.51-1.87-2.48c-0.44-0.96-0.74-2.03-0.9-3.2c-0.17-1.17-0.24-2.23-0.24-3.2c0-1.85,0.3-4.14,0.9-6.88    c0.61-2.73,1.49-5.39,2.66-7.97c1.16-2.57,2.61-4.79,4.34-6.64c1.73-1.85,3.72-2.78,5.98-2.78c1.28,0,2.33,0.38,3.13,1.15    c0.81,0.76,1.45,1.69,1.93,2.78c0.48,1.08,0.8,2.27,0.97,3.56c0.16,1.29,0.24,2.41,0.24,3.38    C567.15,263.76,566.99,265.67,566.67,267.64z"
   id="path4" />
	</g>
	<path
   class="st1"
   d="M643.24,295.41c-0.21-0.38-0.59-0.57-1.14-0.57c-0.56,0-0.98,0.14-1.29,0.41c-0.31,0.27-0.61,0.62-0.88,1.03   c-0.48,0.69-0.93,1.39-1.34,2.12c-0.41,0.72-0.86,1.43-1.34,2.12c-0.69,0.96-1.6,2.17-2.74,3.61c-1.14,1.45-2.38,2.84-3.72,4.18   c-1.34,1.34-2.74,2.48-4.18,3.41c-1.45,0.93-2.79,1.39-4.03,1.39c-1.45,0-2.58-0.65-3.41-1.96c-0.83-1.31-1.48-2.86-1.96-4.65   c-0.48-1.79-0.79-3.6-0.93-5.42c-0.14-1.82-0.21-3.25-0.21-4.29c0-0.62,0.02-1.39,0.05-2.32c0.04-0.93,0.16-1.67,0.36-2.22   c0.14-0.48,0.39-1,0.77-1.55c0.38-0.55,0.71-1.03,0.98-1.45c0.83-1.38,1.67-2.7,2.53-3.98c0.86-1.27,1.67-2.6,2.43-3.98   c1.58-2.82,3.13-6.03,4.65-9.61c1.51-3.58,2.9-7.27,4.14-11.06c1.24-3.79,2.23-7.57,2.99-11.36c0.76-3.79,1.14-7.3,1.14-10.54   c0-0.96-0.11-2-0.31-3.1c-0.21-1.1-0.53-2.12-0.98-3.05c-0.45-0.93-1.07-1.69-1.86-2.28c-0.79-0.58-1.81-0.88-3.05-0.88   c-1.52,0-3.02,0.55-4.49,1.65c-1.48,1.1-2.86,2.46-4.13,4.08c-1.28,1.62-2.4,3.29-3.36,5.01c-0.96,1.72-1.72,3.2-2.27,4.44   c-2.9,6.68-4.93,13.55-6.1,20.61c-1.17,7.06-1.76,14.21-1.76,21.44c0,1.31,0.05,3.03,0.16,5.17c0.1,2.14,0.29,4.43,0.57,6.87   c0.07,0.65,0.18,1.3,0.27,1.95c-0.49,0.68-0.98,1.35-1.52,2.03c-1.38,1.72-2.89,3.25-4.55,4.6c-1.65,1.34-3.45,2.44-5.37,3.3   c-1.93,0.86-4,1.29-6.2,1.29c-2.41,0-4.13-0.67-5.17-2.02c-1.03-1.35-1.55-3.2-1.55-5.54c0-1.31,0.17-2.76,0.52-4.35   c1.58-0.55,3.3-1.59,5.17-3.11c1.86-1.52,3.6-3.26,5.22-5.23c1.62-1.97,2.96-4.01,4.03-6.11c1.06-2.11,1.6-4.02,1.6-5.75   c0-1.8-0.5-3.28-1.5-4.45c-1-1.17-2.43-1.76-4.29-1.76c-2.75,0-5.29,1.07-7.59,3.2c-2.31,2.14-4.29,4.74-5.94,7.8   c-1.65,3.07-2.93,6.25-3.82,9.56c-0.9,3.31-1.35,6.13-1.35,8.47c0,1.86,0.21,3.63,0.62,5.32c0.41,1.69,1.08,3.17,2.02,4.44   c0.93,1.27,2.11,2.31,3.56,3.1c1.45,0.79,3.2,1.19,5.27,1.19c2.82,0,5.54-0.47,8.16-1.41c2.61-0.94,5.06-2.22,7.34-3.82   c2.27-1.6,4.35-3.48,6.25-5.61c0.02,0.09,0.03,0.17,0.05,0.26c0.55,2.45,1.31,4.65,2.28,6.61c0.96,1.96,2.12,3.56,3.46,4.8   c1.34,1.24,2.98,1.86,4.91,1.86c2.13,0,4.27-0.67,6.41-2.01c2.13-1.34,4.16-2.98,6.09-4.91c1.93-1.93,3.67-3.99,5.22-6.2   c1.55-2.2,2.84-4.13,3.87-5.79c0.34-0.55,0.69-1.14,1.03-1.76c0.34-0.62,0.51-1.27,0.51-1.96   C643.55,296.22,643.45,295.79,643.24,295.41z M586.41,291.67c0.62-1.97,1.38-3.95,2.28-5.93c0.89-1.97,1.86-3.71,2.89-5.2   c1.03-1.49,2.07-2.23,3.1-2.23c0.69,0,1.15,0.26,1.39,0.78c0.24,0.52,0.36,1.06,0.36,1.61c0,1.38-0.38,2.83-1.14,4.31   c-0.76,1.49-1.69,2.94-2.79,4.36c-1.1,1.42-2.31,2.7-3.62,3.85c-1.31,1.14-2.52,2.06-3.62,2.75   C585.41,295.08,585.79,293.64,586.41,291.67z M615.76,281.31c0-0.48,0-1,0-1.55c0-4.96,0.61-10.14,1.81-15.55   c1.2-5.41,2.53-10.49,3.98-15.24c0.27-0.83,0.67-2.07,1.19-3.72c0.51-1.65,1.14-3.27,1.86-4.86c0.73-1.58,1.57-2.98,2.53-4.18   c0.96-1.2,2-1.81,3.1-1.81c0.41,0,0.73,0.16,0.93,0.47c0.21,0.31,0.36,0.67,0.46,1.08c0.1,0.41,0.16,0.86,0.16,1.34   c0,0.41,0,0.72,0,0.93c0,3.31-0.52,6.96-1.55,10.95c-1.03,4-2.32,8.01-3.87,12.03c-1.55,4.03-3.27,7.92-5.17,11.68   c-1.89,3.76-3.67,7.04-5.32,9.87C615.79,282.2,615.76,281.72,615.76,281.31z"
   id="path5" />
	<path
   class="st2"
   d="M399.81,368.55c0,0.79-1.25,1.18-3.74,1.18c-5.61,0-8.73,0.83-9.36,2.48c-0.42,1.14-0.62,5.64-0.62,13.5v4.97   c-5.41,4.56-10.55,7.76-15.44,9.62c-4.89,1.86-10.76,2.79-17.62,2.79c-16.43,0-29.47-4.91-39.14-14.74   c-9.67-9.82-14.5-23.16-14.5-40c0-17.05,4.73-30.82,14.19-41.32c9.46-10.5,21.93-15.75,37.43-15.75c6.76,0,14.14,1.87,22.14,5.61   c2.39,1.14,4.37,1.71,5.93,1.71c1.97,0,3.28-1.25,3.9-3.74c0.52-1.45,1.14-2.18,1.87-2.18c0.83,0,1.25,0.47,1.25,1.4   c0,0.1-0.09,1.09-0.27,2.96c-0.65,6.13-0.93,10.66-0.82,13.57v8.42c0.1,4.26,0.05,6.91-0.16,7.95c-0.21,1.04-0.78,1.56-1.72,1.56   s-1.46-0.73-1.56-2.19c-0.52-10.02-3.43-17.94-8.73-23.73c-5.3-5.8-12.27-8.69-20.9-8.69c-10.81,0-19.36,4.82-25.65,14.47   c-6.29,9.64-9.43,22.81-9.43,39.49c0,16.16,3.19,28.96,9.59,38.4c6.39,9.44,15.05,14.15,25.96,14.15c8.32,0,14.04-2.4,17.15-7.21   c1.56-2.4,2.34-6.74,2.34-13.01c0-5.22-0.49-8.31-1.48-9.24c-0.99-0.94-4.39-1.36-10.21-1.26c-1.46,0-2.4-0.07-2.81-0.21   c-0.42-0.14-0.63-0.44-0.63-0.91c0-1.02,1.14-1.54,3.43-1.54h2.8c2.29,0.1,8.01,0.1,17.15,0h12.48c0.73,0,1.51,0,2.34,0   c0.83,0,1.4,0,1.71,0C398.77,367.08,399.81,367.57,399.81,368.55z"
   id="path6" />
	<path
   class="st2"
   d="M465.31,397.33c0,3.33-2.9,4.99-8.7,4.99c-5.59,0-10.15-2.12-13.67-6.36c-1.56-1.86-2.59-3.73-3.11-5.59   c-0.52-1.86-1.14-6.27-1.86-13.2c-0.52-4.45-1.95-7.56-4.27-9.32c-2.33-1.76-6.35-2.74-12.04-2.95v32.12   c-0.31,1.46,2.3,2.19,7.82,2.19c1.12,0,1.69,0.37,1.69,1.09c0,0.73-0.73,1.09-2.18,1.09c-1.15,0-2.24,0-3.28,0h-5.46   c-2.29,0-5.05,0-8.26,0c-3.12,0-4.84,0-5.15,0h-2.96c-2.91,0-4.37-0.34-4.37-1.02c0-0.78,0.52-1.16,1.56-1.16c0.31,0,0.83,0,1.56,0   h0.62c3.53,0,5.3-0.73,5.3-2.19v-61.59c0-1.14-0.29-1.9-0.86-2.26c-0.57-0.36-2.08-0.55-4.52-0.55c-2.44,0-3.66-0.42-3.66-1.25   c0-0.72,0.72-1.09,2.18-1.09h1.09c1.66,0,6.6,0,14.82,0c3.43,0,6.24,0,8.42,0c2.18,0,3.9,0,5.14,0c6.96,0,12.55,1.42,16.76,4.27   s6.31,6.6,6.31,11.25c0,5.07-2.23,9.19-6.7,12.34c-4.47,3.16-10.76,4.99-18.87,5.51c8.73,0.93,14.73,3.21,18.01,6.83   c3.28,3.63,5.38,10.15,6.31,19.56c0.63,6.42,2.55,9.62,5.77,9.62c0.52,0,0.78-0.15,0.78-0.45c0-0.1-0.13-0.43-0.39-0.99   c-0.26-0.55-0.39-0.98-0.39-1.29c0-1.92,1.04-2.89,3.12-2.89C464.16,394.05,465.31,395.15,465.31,397.33z M440.67,346.89   c0-9.31-4.59-13.96-13.77-13.96c-2.37,0-3.84,0.23-4.41,0.7c-0.56,0.47-0.85,1.58-0.85,3.33v25.44   C434.33,362.4,440.67,357.23,440.67,346.89z"
   id="path7" />
	<path
   class="st2"
   d="M537.51,400.45c0,0.62-1.04,0.93-3.12,0.93h-1.09h-9.67h-4.37c-1.77,0-4.21,0-7.33,0h-4.68h-2.81h-0.78   c-1.87,0-2.81-0.41-2.81-1.24c0-0.82,1.87-1.29,5.61-1.4c4.47-0.1,6.7-0.62,6.7-1.55c0-0.2-0.31-1.19-0.93-2.94   c-0.21-0.82-1.4-4.28-3.59-10.38l-1.87-5.27h-22.3c-4.26,10.71-6.4,16.9-6.4,18.56c0,0.93,0.63,1.46,1.87,1.56l2.02,0.16h2.34   l1.4,0.47c1.25,0,1.87,0.32,1.87,0.94c0,0.72-1.09,1.08-3.27,1.08c-0.31,0-2.16-0.08-5.54-0.23c-3.38-0.16-6.37-0.23-8.97-0.23   h-1.4l-1.4,0.23l-1.72,0.23H465c-1.66,0-2.5-0.31-2.5-0.94c0-0.73,0.68-1.14,2.03-1.25c1.87-0.1,3.12-0.21,3.74-0.32   c1.77-0.31,2.91-0.78,3.43-1.4c0.62-0.31,3.17-6.26,7.64-17.83c1.77-4.69,3.48-9.07,5.15-13.13c0.63-1.46,1.04-2.55,1.25-3.28   c0.21-0.73,0.63-1.82,1.25-3.28c1.77-4.27,4.26-10.73,7.49-19.38l2.35-6.55l1.08-2.81c0.62-1.56,1.25-2.34,1.87-2.34   c0.31,0,0.98,1.46,2.02,4.37c3.12,7.59,11.17,27.65,24.17,60.19c1.25,3.22,2.44,4.94,3.59,5.14c0.31,0.11,1.98,0.26,4.99,0.47   C536.52,399.15,537.51,399.62,537.51,400.45z M505.85,375.96l-10.03-26.65c-2.52,6.24-6,15.12-10.42,26.65H505.85z"
   id="path8" />
	<path
   class="st2"
   d="M604.72,331.37c0,0.73-1.14,1.09-3.43,1.09c-0.31,0-1.04,0-2.19,0h-1.71c-0.94,0-1.48,0.21-1.64,0.63   c-0.16,0.42-0.23,1.83-0.23,4.23v57.49c0,3.76-0.05,5.95-0.16,6.58c-0.1,0.62-0.57,0.93-1.4,0.93c-1.15,0-4.84-4.36-11.09-13.08   c-0.72-1.14-1.86-2.71-3.41-4.69c-0.21-0.31-0.78-1.09-1.71-2.35c-5.2-6.9-14.62-19.86-28.24-38.88v49.45   c0,3.87,0.55,5.91,1.64,6.12c1.09,0.21,3.09,0.32,6.01,0.32h0.62c1.25,0,1.87,0.34,1.87,1.02c0,0.78-1.15,1.16-3.43,1.16   c-0.42,0-2.13-0.1-5.14-0.31c-1.56-0.1-2.96-0.16-4.21-0.16c-1.04,0-2.08,0.05-3.12,0.16c-1.98,0.21-4.11,0.31-6.39,0.31   c-1.67,0-2.49-0.39-2.49-1.16c0-0.67,0.98-1.02,2.96-1.02h1.4l2.03-0.16c2.49-0.21,3.79-0.68,3.9-1.42   c0.1-0.42,0.16-1.93,0.16-4.56v-43.18c0-7.85-0.47-12.56-1.4-14.13c-1.25-2.09-3.69-3.14-7.33-3.14c-2.6,0-3.9-0.44-3.9-1.32   c0-0.68,0.68-1.02,2.03-1.02h0.62h8.58c0.42,0,1.09,0,2.03,0c1.04,0,1.97,0,2.81,0h5.77l36.8,50.67V337.6c0-2.6-0.1-4.11-0.31-4.52   c-0.21-0.41-1.04-0.62-2.49-0.62c-1.35,0-2.44,0-3.28,0h-0.93c-1.98,0-2.96-0.39-2.96-1.16c0-0.49,0.49-0.78,1.48-0.87   c0.99-0.1,4.49-0.15,10.53-0.15c5.71,0,9.04,0.05,9.98,0.14C604.25,330.5,604.72,330.82,604.72,331.37z"
   id="path9" />
	<path
   class="st2"
   d="M683,365.75c0,12.19-4.68,21.62-14.04,28.29c-6.76,4.79-15.43,7.19-26.04,7.19c0.31,0-0.91,0-3.66,0   c-2.76,0-6.99,0-12.71,0h-3.43c0.21,0-0.73,0-2.81,0c-2.08,0-4.16,0-6.24,0h-1.4c-1.77,0-2.65-0.5-2.65-1.49   c0-0.88,0.62-1.26,1.87-1.16h3.59c2.08,0.11,3.22-0.47,3.43-1.71c0.21-0.41,0.31-2.22,0.31-5.43v-49.82c0-4.97-0.1-7.6-0.31-7.91   c-0.52-0.62-2.34-0.98-5.46-1.09c-1.87,0-2.81-0.36-2.81-1.09c0-0.83,0.94-1.25,2.81-1.25c-0.21,0,0.26,0,1.4,0   c1.25,0,3.12,0,5.61,0h10.45c13.62,0,23.28,0.83,29,2.5c6.86,1.98,12.42,6.02,16.69,12.11C680.87,350.98,683,357.94,683,365.75z    M668.03,365.2c0-21.52-8.7-32.28-26.08-32.28c-5.28,0-8.21,0.29-8.78,0.86c-0.57,0.57-0.85,2.47-0.85,5.69v55.05   c0,1.87,0.44,3.02,1.32,3.43c0.88,0.42,3.13,0.62,6.76,0.62C658.82,398.58,668.03,387.45,668.03,365.2z"
   id="path10" />
	<path
   class="st2"
   d="M749.9,384.46c0,0.11-0.08,0.77-0.23,1.98c-0.16,1.21-0.23,2.3-0.23,3.25v9.04c0,0.95,0.16,1.99,0.47,3.12   l-26.02-0.47l-29.79,0.47c-2.19,0-3.29-0.42-3.29-1.24c0-0.94,0.63-1.41,1.87-1.41c3.33,0,5.28-0.23,5.85-0.7   c0.57-0.47,0.86-2.16,0.86-5.07v-53.64c0-4.26-0.37-6.52-1.09-6.78c-0.73-0.26-2.55-0.39-5.46-0.39c-1.25,0-1.87-0.36-1.87-1.09   c0-0.83,0.67-1.25,2.03-1.25h3.74c1.04,0,2.08,0,3.12,0h1.72h3.9c0.52,0,3.12,0,7.8,0c4.78,0,10.5,0,17.15,0h9.2   c2.7,0,4.94,0,6.71,0v1.07l0.15,2.3c0.21,1.54,0.63,6.15,1.25,13.83c0.1,0.51,0.15,1.13,0.15,1.84c0,1.33-0.36,2-1.09,2   c-0.93,0-1.61-1.04-2.02-3.12c-1.45-7.9-4.19-12.52-8.23-13.88c-2.27-0.73-7.66-1.09-16.14-1.09h-7.92v29.16h3.71   c6.6,0,10.67-0.54,12.22-1.64c1.55-1.09,2.58-4.08,3.1-8.96c0.31-2.91,0.94-4.37,1.87-4.37c1.04,0,1.56,1.04,1.56,3.12   c0,1.25-0.08,3.17-0.23,5.77c-0.16,2.6-0.23,4.57-0.23,5.92c0,6.76,0.12,11.38,0.35,13.88c0.08,0.84,0.12,1.51,0.12,2.03   c0,1.66-0.51,2.49-1.54,2.49c-0.92,0-1.54-1.3-1.85-3.9c-0.61-5.61-1.64-8.97-3.07-10.06s-5.49-1.64-12.15-1.64h-3.84v33.68   c15.21-0.1,24.16-0.52,26.86-1.25c4.14-1.14,6.57-6.13,7.29-14.97c0.1-1.56,0.67-2.34,1.72-2.34   C749.37,380.17,749.9,381.6,749.9,384.46z"
   id="path11" />
</g>









<g
   id="g63">
	<g
   id="g62">
		<rect
   x="239.66"
   y="399.41"
   class="st3"
   width="8.82"
   height="0.55"
   id="rect29" />
		<path
   class="st0"
   d="M217.73,307.69c-1.36,0-2.47,1.11-2.47,2.48v15.87l4.95,1.83v-17.7C220.2,308.8,219.09,307.69,217.73,307.69z    "
   id="path30" />
		<path
   class="st0"
   d="M250.76,329.55c0-1.01-0.82-1.83-1.83-1.83c-1.01,0-1.83,0.82-1.83,1.83v7.98l3.66,1.19V329.55z"
   id="path31" />
		<path
   class="st0"
   d="M189.35,311.19c0-0.48,0.07-0.95,0.17-1.4h-5.13v9.86h4.96V311.19z"
   id="path32" />
		<polygon
   class="st0"
   points="229.71,325 232.59,328.33 232.59,332.34 234.63,333.07 234.63,318.07 229.71,319.46   "
   id="polygon32" />
		<polygon
   class="st0"
   points="226.83,327.84 226.83,330.27 227.72,330.59 227.72,328.51 226.94,327.65   "
   id="polygon33" />
		<polygon
   class="st0"
   points="229.71,328.37 229.71,331.3 230.61,331.63 230.61,329.07 229.82,328.17   "
   id="polygon34" />
		<rect
   x="178.41"
   y="389.55"
   class="st0"
   width="4"
   height="9.86"
   id="rect34" />
		<polygon
   class="st0"
   points="252.75,339.59 254.93,340.37 252.75,334.07   "
   id="polygon35" />
		<path
   class="st0"
   d="M195.57,304.97c3.43,0,6.22,2.79,6.22,6.22v21.22h-1.75l6.69,20.07V324.4v-1.36v-23.3v-0.6v-1.72l0.02,0.01    c0.03-2.51-0.1-2.81-2.27-2.9c-1.08-0.04-1.92,0.16-2.35,0.57c-0.31,0.3-0.34,0.64-0.34,0.65v6.36h-1.89l-10.13,3.85l0.61,1.82    C191.48,306.09,193.39,304.97,195.57,304.97z"
   id="path35" />
		<path
   class="st0"
   d="M236.62,317.65v16.13l1.38,0.5v-6.69c0-1.43,1.16-2.59,2.59-2.59c1.43,0,2.59,1.16,2.59,2.59v8.55l1.94,0.7    v-7.29c0-2.1,1.71-3.81,3.81-3.81c0.34,0,0.66,0.06,0.97,0.14l-3.25-9.38L236.62,317.65z"
   id="path36" />
		<path
   class="st0"
   d="M183.94,260.24c0.08,0,0.16,0.01,0.25,0.01c-9.38-6.28-15.56-16.97-15.56-29.07c0-0.21,0.02-0.42,0.02-0.64    c-0.75,1.19-1.83,2.14-3.1,2.75l10.99,32.98C177.24,262.84,180.3,260.24,183.94,260.24z"
   id="path37" />
		<path
   class="st0"
   d="M165.44,226.5c0-1.75-1.42-3.18-3.18-3.18c-0.02,0-0.03,0-0.05,0l1.91,5.73    C164.92,228.49,165.44,227.56,165.44,226.5z"
   id="path38" />
		<path
   class="st0"
   d="M162.27,218.94c3.29,0,6.08,2.11,7.12,5.05c2-9.44,7.85-17.79,16.3-22.84l-2.83-8.22l-0.82,0.04    c-7.01,0.3-11.73-0.26-14.3-1.71c-1.04,8.33-11.69,9.86-11.81,9.87l-1.06,0.14l5.94,17.82    C161.28,218.99,161.77,218.94,162.27,218.94z"
   id="path39" />
		<path
   class="st0"
   d="M199.37,330.43h0.43v-19.24c0-2.34-1.9-4.24-4.24-4.24c-2.34,0-4.24,1.9-4.24,4.24v8.47h4.45L199.37,330.43z"
   id="path40" />
		<path
   class="st0"
   d="M208.71,323.75l4.56,1.64v-15.23c0-2.46,2-4.46,4.46-4.46c2.46,0,4.46,2,4.46,4.46v18.43l2.33,0.84v-23.21    l-15.81-5.94V323.75z"
   id="path41" />
		<path
   class="st0"
   d="M259.5,368.17c0-0.21-0.17-0.38-0.38-0.38h-30.35c-0.21,0-0.38,0.17-0.38,0.38s0.17,0.38,0.38,0.38h30.35    C259.33,368.55,259.5,368.38,259.5,368.17z"
   id="path42" />
		<path
   class="st0"
   d="M243.76,366.26c0.95,0,1.76-1.38,1.76-3.02c0-1.21-1.19-2.35-1.76-2.82c-0.57,0.48-1.76,1.62-1.76,2.82    C242,364.84,242.82,366.26,243.76,366.26z"
   id="path43" />
		<rect
   x="239.66"
   y="396.21"
   class="st0"
   width="8.82"
   height="3.2"
   id="rect43" />
		<rect
   x="184.39"
   y="389.55"
   class="st0"
   width="22.34"
   height="9.86"
   id="rect44" />
		<path
   class="st0"
   d="M244.94,377.54c4.24,0,7.79-3.29,8.18-7.45h-18.74c0.39,4.16,3.94,7.45,8.18,7.45H244.94z"
   id="path44" />
		<path
   class="st0"
   d="M251.53,394.68c4.24,0,7.79-3.29,8.18-7.45H227.6c0.39,4.16,3.94,7.45,8.18,7.45h2.35h11.88H251.53z"
   id="path45" />
		<rect
   x="241.21"
   y="379.21"
   class="st0"
   width="5.24"
   height="3.24"
   id="rect45" />
		<path
   class="st0"
   d="M271.97,389.55l-16.21-46.77l-9.96-3.58l-0.68-0.22v-0.02l-17.38-6.25h-0.02v-0.01l-5.54-1.99v0.01    l-1.31-0.49l-12.17-4.37v32.58l10.37,31.11h-10.37v9.86h29.42v-3.2h-2.35c-5.13,0-9.33-3.98-9.71-9.01h-3.42    c-1.31,0-2.37-1.07-2.37-2.38c0-1.31,1.07-2.38,2.37-2.38h17.03v-3.81c-3.73-1.16-6.5-4.52-6.82-8.55h-4.09    c-1.06,0-1.91-0.86-1.91-1.91c0-1.05,0.86-1.91,1.91-1.91h12.53c-0.51-0.8-0.83-1.85-0.83-3.02c0-1.75,1.38-3.2,2.22-3.92v-3.91    h2.14v3.91c0.84,0.72,2.22,2.17,2.22,3.92c0,1.17-0.33,2.22-0.85,3.02h12.92c1.06,0,1.91,0.86,1.91,1.91    c0,1.05-0.86,1.91-1.91,1.91h-4.46c-0.31,3.98-3.01,7.29-6.67,8.5v3.87h17.25c1.31,0,2.38,1.07,2.38,2.38    c0,1.31-1.07,2.38-2.38,2.38h-3.99c-0.38,5.03-4.59,9.01-9.71,9.01h-1.52v3.2h32.83v-9.86H271.97z"
   id="path46" />
		<rect
   x="284.83"
   y="389.55"
   class="st0"
   width="18.33"
   height="9.86"
   id="rect46" />
		<path
   class="st0"
   d="M114.45,309.79l39.88-110.14l0,0.01c0.01-3.74,1.14-6.71,3.34-8.82c2.64-2.52,6.07-3.06,7.76-3.17    c0.04-0.98,0.47-1.99,1.26-2.91c1.59-1.83,8.22-3.55,13.03-4.6c-1.43-2.12-2.83-4.86-2.49-7.01c-3.93-0.1-7.1-3.32-7.1-7.28    c0-4.02,3.27-7.29,7.29-7.29c4.02,0,7.29,3.27,7.29,7.29c0,1.38-0.39,2.66-1.06,3.76c1.75,0.14,3.41,0.63,4.41,0.98    c1.38,0.49,2.94,1.84,4.44,3.15c0.75,0.65,1.99,1.72,2.45,1.93c0.18,0,0.42-0.01,0.68-0.02c0.75-0.03,1.5-0.05,2.2-0.04    l-15.89-45.85h-13.81L99.09,319.9l-25.3,69.65H42.21v9.86h83.7v-9.86H85.64l24.47-69.89h72.29v-9.86H114.45z"
   id="path47" />
		<path
   class="st0"
   d="M266.08,384.82c0-0.47-0.38-0.84-0.85-0.84h-17.25h-8.3h-17.03c-0.47,0-0.84,0.38-0.84,0.84    s0.38,0.84,0.84,0.84h42.59C265.7,385.67,266.08,385.29,266.08,384.82z"
   id="path48" />
		<path
   class="st0"
   d="M185.13,192.15l3.02,8.76l0.03,0.04l0.09,0.29c0.16,0.61-0.1,1.26-0.66,1.58    c-10.23,5.78-16.58,16.65-16.58,28.37c0,17.96,14.61,32.56,32.56,32.56c8.4,0,16.07-3.2,21.86-8.45l-22.84-65.92    C198.63,189.65,190.24,191.15,185.13,192.15z"
   id="path49" />
		<path
   class="st0"
   d="M157.26,197.94c2.64-0.74,7.3-2.71,7.71-7.4c-1.41,0.18-3.66,0.72-5.35,2.33    C158.33,194.12,157.54,195.82,157.26,197.94z"
   id="path50" />
		<path
   class="st0"
   d="M241.2,327.6c0-0.34-0.27-0.61-0.61-0.61c-0.33,0-0.61,0.27-0.61,0.61v7.4l1.21,0.44V327.6z"
   id="path51" />
		<path
   class="st0"
   d="M221.88,264.72c-0.5,0.45-0.94,0.96-1.37,1.45c-0.63,0.73-1.23,1.42-2,1.92c-0.93,0.61-2.08,0.86-3.2,0.76    c-0.05-0.35-0.08-0.7-0.08-1.05c0-1.52,0.45-2.93,1.22-4.11c-3.98,1.58-8.32,2.46-12.86,2.46c-5.37,0-10.45-1.22-15-3.39    c-1.98-0.08-4.01,0.59-5.56,1.96c-0.5,0.45-0.94,0.96-1.37,1.45c-0.63,0.73-1.23,1.42-2,1.92c-0.68,0.44-1.46,0.69-2.27,0.76    l1.46,4.38c0.93-0.05,1.86-0.33,2.63-0.86c0.8-0.54,1.42-1.29,2.02-2.01c0.4-0.48,0.82-0.98,1.28-1.41    c1.84-1.7,4.44-2.27,6.7-1.56c0.01,0.13,0.02,0.26,0.02,0.4c0,4.17-3.39,7.56-7.56,7.56c-1.94,0-3.69-0.75-5.03-1.96l10.23,30.71    l10.65-3.98v-4.4c0-0.12,0.03-1.17,0.95-2.06c0.84-0.81,2.15-1.19,3.8-1.13c0.02,0,0.03,0,0.04,0v-6.35l-3.77-1.74l0.92-1.99    l2.86,1.32v-3.03h2.19v4.04l4.76,2.19l-0.92,1.99l-3.84-1.77v5.75c1.99,0.8,1.97,2.68,1.93,4.93c0,0.09,0,0.19,0,0.28l17.79,6.68    v19.65l0.09-0.16l1.13,1.23v-7.61l7.63-2.15l10.64-1.23l-15.76-45.48c-0.62,3.55-3.72,6.27-7.44,6.27c-2.03,0-3.87-0.81-5.23-2.12    c0.98-0.02,1.96-0.32,2.78-0.87c0.8-0.54,1.42-1.29,2.02-2.01c0.4-0.48,0.82-0.98,1.28-1.41c1.64-1.51,3.88-2.13,5.95-1.74    l-1.53-4.4C225.89,262.55,223.59,263.21,221.88,264.72z"
   id="path52" />
		<path
   class="st0"
   d="M227.85,262.2l-1.54-4.45c-1.05,0.9-2.15,1.73-3.3,2.5C224.87,260.31,226.55,261.04,227.85,262.2z"
   id="path53" />
		<path
   class="st0"
   d="M177.42,161.4c-2.46,0-4.47,2-4.47,4.47c0,2.46,2,4.47,4.47,4.47c2.46,0,4.47-2,4.47-4.47    C181.89,163.4,179.88,161.4,177.42,161.4z"
   id="path54" />
		<path
   class="st0"
   d="M195.77,178.51c-0.37,0.01-0.69,0.02-0.92,0.02c-1.19,0-2.46-1.1-4.21-2.62c-1.19-1.03-2.66-2.31-3.53-2.62    c-2.51-0.89-5.85-1.4-6.99,0.06c-0.65,0.84,1.16,4.37,3.16,6.85l1.47,1.84l-2.31,0.45c-5.82,1.15-12.68,3.06-13.61,4.13    c-0.13,0.15-0.76,0.92-0.5,1.45c0.13,0.26,1.59,2.55,13.46,2.05l0.1,0l-0.03-0.07l1.92-0.09c1.76-0.35,12.38-2.43,18.01-2.92    l-2.96-8.53C198.1,178.47,197.11,178.46,195.77,178.51z"
   id="path55" />
		<rect
   x="282.85"
   y="389.55"
   class="st4"
   width="1.98"
   height="9.86"
   id="rect55" />
		<rect
   x="182.4"
   y="309.79"
   class="st4"
   width="1.98"
   height="9.86"
   id="rect56" />
		<path
   class="st4"
   d="M227.72,317.96v7.61l-1.13-1.23l-0.09,0.16v-19.65l-17.79-6.68c0-0.09,0-0.19,0-0.28    c0.04-2.25,0.06-4.13-1.93-4.93v-5.75l3.84,1.77l0.92-1.99l-4.76-2.19v-4.04h-2.19v3.03l-2.86-1.32l-0.92,1.99l3.77,1.74v6.35    c-0.02,0-0.03,0-0.04,0c-1.65-0.06-2.96,0.31-3.8,1.13c-0.92,0.89-0.95,1.94-0.95,2.06v4.4l-10.65,3.98l0.62,1.85l10.13-3.85h1.89    v-6.36c0-0.01,0.03-0.35,0.34-0.65c0.43-0.42,1.28-0.62,2.35-0.57c2.16,0.09,2.3,0.39,2.27,2.9l-0.02-0.01v1.72v0.6v23.3v1.36    v28.08l1.98,5.96v-32.58l12.17,4.37l1.31,0.49v-0.01l5.54,1.99v0.01h0.02l17.38,6.25v0.02l0.68,0.22l9.96,3.58l-0.83-2.41    l-2.18-0.78v-5.51l-2.84-8.19c-0.31-0.08-0.64-0.14-0.97-0.14c-2.1,0-3.81,1.71-3.81,3.81v7.29l-1.94-0.7v-8.55    c0-1.43-1.16-2.59-2.59-2.59c-1.43,0-2.59,1.16-2.59,2.59v6.69l-1.38-0.5v-16.13l10.04-1.15l-0.66-1.92l-10.64,1.23L227.72,317.96    z M220.2,327.87l-4.95-1.83v-15.87c0-1.36,1.11-2.48,2.47-2.48c1.36,0,2.47,1.11,2.47,2.48V327.87z M224.52,329.44l-2.33-0.84    v-18.43c0-2.46-2-4.46-4.46-4.46c-2.46,0-4.46,2-4.46,4.46v15.23l-4.56-1.64v-23.47l15.81,5.94V329.44z M227.72,330.59l-0.9-0.32    v-2.43l0.11-0.19l0.79,0.85V330.59z M230.61,331.63l-0.9-0.32v-2.93l0.12-0.21l0.78,0.9V331.63z M234.63,333.07l-2.04-0.73v-4.01    l-2.88-3.32v-5.54l4.93-1.4V333.07z M247.11,329.55c0-1.01,0.82-1.83,1.83-1.83c1.01,0,1.83,0.82,1.83,1.83v9.17l-3.66-1.19    V329.55z M239.99,327.6c0-0.34,0.27-0.61,0.61-0.61c0.33,0,0.61,0.27,0.61,0.61v7.84l-1.21-0.44V327.6z"
   id="path56" />
		<rect
   x="206.72"
   y="389.55"
   class="st4"
   width="1.98"
   height="9.86"
   id="rect57" />
		<rect
   x="182.4"
   y="389.55"
   class="st4"
   width="1.98"
   height="9.86"
   id="rect58" />
		<path
   class="st4"
   d="M201.79,311.19c0-3.43-2.79-6.22-6.22-6.22c-2.17,0-4.09,1.13-5.2,2.82l0.67,2h-1.52    c-0.1,0.45-0.17,0.92-0.17,1.4v8.47h1.98v-8.47c0-2.34,1.9-4.24,4.24-4.24c2.34,0,4.24,1.9,4.24,4.24v19.24h-0.43l0.66,1.98h1.75    V311.19z"
   id="path58" />
		<path
   class="st4"
   d="M194.96,175.68c-0.47-0.2-1.7-1.27-2.45-1.93c-1.51-1.31-3.06-2.66-4.44-3.15c-1-0.35-2.66-0.84-4.41-0.98    c0.67-1.1,1.06-2.39,1.06-3.76c0-4.02-3.27-7.29-7.29-7.29c-4.02,0-7.29,3.27-7.29,7.29c0,3.96,3.17,7.18,7.1,7.28    c-0.34,2.15,1.07,4.89,2.49,7.01c-4.82,1.05-11.44,2.77-13.03,4.6c-0.8,0.91-1.22,1.93-1.26,2.91c-1.69,0.11-5.12,0.65-7.76,3.17    c-2.2,2.11-3.33,5.08-3.34,8.82l0.54,1.61l1.06-0.14c0.12-0.02,10.77-1.54,11.81-9.87c2.57,1.45,7.3,2.01,14.3,1.71l0.82-0.04    l2.83,8.22c-8.45,5.05-14.3,13.39-16.3,22.84c-1.04-2.93-3.84-5.05-7.12-5.05c-0.5,0-0.99,0.05-1.46,0.14l1.42,4.25    c0.02,0,0.03,0,0.05,0c1.75,0,3.18,1.43,3.18,3.18c0,1.05-0.52,1.98-1.31,2.56l1.41,4.24c1.27-0.62,2.35-1.57,3.1-2.75    c0,0.21-0.02,0.42-0.02,0.64c0,12.11,6.19,22.79,15.56,29.07c-0.08,0-0.16-0.01-0.25-0.01c-3.65,0-6.7,2.6-7.41,6.04l0.86,2.57    c0.81-0.07,1.59-0.32,2.27-0.76c0.77-0.5,1.37-1.19,2-1.92c0.43-0.49,0.87-1.01,1.37-1.45c1.54-1.37,3.57-2.04,5.56-1.96    c4.55,2.17,9.64,3.39,15,3.39c4.54,0,8.87-0.88,12.86-2.46c-0.77,1.18-1.22,2.6-1.22,4.11c0,0.36,0.03,0.71,0.08,1.05    c1.12,0.1,2.26-0.15,3.2-0.76c0.77-0.5,1.37-1.19,2-1.92c0.43-0.49,0.87-1.01,1.37-1.45c1.71-1.52,4-2.17,6.18-1.9l-0.21-0.62    c-1.29-1.16-2.98-1.89-4.84-1.95c1.15-0.77,2.25-1.61,3.3-2.5l-0.85-2.45c-5.78,5.25-13.45,8.45-21.86,8.45    c-17.95,0-32.56-14.61-32.56-32.56c0-11.72,6.35-22.59,16.58-28.37c0.55-0.32,0.82-0.97,0.66-1.58l-0.09-0.29l-0.03-0.04    l-3.02-8.76c5.11-1,13.5-2.5,17.48-2.77l-0.81-2.34c-5.63,0.49-16.26,2.57-18.01,2.92l-1.92,0.09l0.03,0.07l-0.1,0    c-11.87,0.5-13.33-1.79-13.46-2.05c-0.26-0.53,0.38-1.3,0.5-1.45c0.93-1.07,7.79-2.98,13.61-4.13l2.31-0.45l-1.47-1.84    c-1.99-2.48-3.81-6.02-3.16-6.85c1.14-1.46,4.48-0.95,6.99-0.06c0.87,0.31,2.35,1.59,3.53,2.62c1.75,1.52,3.02,2.62,4.21,2.62    c0.23,0,0.54-0.01,0.92-0.02c1.34-0.05,2.33-0.04,3.07,0l-1-2.88c-0.71-0.01-1.45,0.01-2.2,0.04    C195.37,175.67,195.14,175.68,194.96,175.68z M157.26,197.94c0.27-2.13,1.06-3.83,2.36-5.06c1.69-1.62,3.94-2.16,5.35-2.33    C164.56,195.23,159.9,197.2,157.26,197.94z M177.42,170.34c-2.46,0-4.47-2-4.47-4.47c0-2.46,2-4.47,4.47-4.47    c2.46,0,4.47,2,4.47,4.47C181.89,168.33,179.88,170.34,177.42,170.34z"
   id="path59" />
		<path
   class="st4"
   d="M183.94,275.37c4.17,0,7.56-3.39,7.56-7.56c0-0.14-0.01-0.27-0.02-0.4c-2.25-0.72-4.86-0.14-6.7,1.56    c-0.46,0.42-0.88,0.92-1.28,1.41c-0.6,0.72-1.22,1.47-2.02,2.01c-0.78,0.53-1.7,0.81-2.63,0.86l0.06,0.17    C180.25,274.62,182.01,275.37,183.94,275.37z"
   id="path60" />
		<path
   class="st4"
   d="M223.64,268.96c-0.46,0.42-0.87,0.92-1.28,1.41c-0.6,0.72-1.22,1.47-2.02,2.01c-0.82,0.56-1.8,0.85-2.78,0.87    c1.36,1.31,3.2,2.12,5.23,2.12c3.73,0,6.83-2.71,7.44-6.27l-0.65-1.88C227.52,266.83,225.28,267.45,223.64,268.96z"
   id="path61" />
		<path
   class="st4"
   d="M251.53,396.21c5.13,0,9.33-3.98,9.71-9.01h3.99c1.31,0,2.38-1.07,2.38-2.38c0-1.31-1.07-2.38-2.38-2.38    h-17.25v-3.87c3.66-1.2,6.36-4.52,6.67-8.5h4.46c1.06,0,1.91-0.86,1.91-1.91c0-1.05-0.86-1.91-1.91-1.91H246.2    c0.52-0.81,0.85-1.86,0.85-3.02c0-1.75-1.38-3.2-2.22-3.92v-3.91h-2.14v3.91c-0.84,0.72-2.22,2.17-2.22,3.92    c0,1.18,0.32,2.22,0.83,3.02h-12.53c-1.06,0-1.91,0.86-1.91,1.91c0,1.05,0.86,1.91,1.91,1.91h4.09c0.31,4.03,3.08,7.39,6.82,8.55    v3.81h-17.03c-1.31,0-2.37,1.07-2.37,2.38c0,1.31,1.07,2.38,2.37,2.38h3.42c0.38,5.03,4.59,9.01,9.71,9.01h2.35v3.2h1.53v-3.2    h8.82v3.2h1.53v-3.2H251.53z M243.76,360.41c0.57,0.48,1.76,1.62,1.76,2.82c0,1.64-0.8,3.02-1.76,3.02    c-0.94,0-1.76-1.41-1.76-3.02C242,362.03,243.19,360.89,243.76,360.41z M228.77,368.55c-0.21,0-0.38-0.17-0.38-0.38    s0.17-0.38,0.38-0.38h30.35c0.21,0,0.38,0.17,0.38,0.38s-0.17,0.38-0.38,0.38H228.77z M234.39,370.09h18.74    c-0.39,4.16-3.94,7.45-8.18,7.45h-2.37C238.33,377.54,234.78,374.25,234.39,370.09z M246.45,379.21v3.24h-5.24v-3.24H246.45z     M222.65,385.67c-0.47,0-0.84-0.38-0.84-0.84s0.38-0.84,0.84-0.84h17.03h8.3h17.25c0.47,0,0.85,0.38,0.85,0.84    s-0.38,0.84-0.85,0.84H222.65z M238.13,394.68h-2.35c-4.24,0-7.79-3.29-8.18-7.45h32.12c-0.39,4.16-3.94,7.45-8.18,7.45h-1.52    H238.13z"
   id="path62" />
	</g>
	<polygon
   class="st1"
   points="70.22,399.41 125.91,399.41 125.91,389.55 85.64,389.55 110.11,319.66 99.09,319.66  "
   id="polygon62" />
</g>
</svg>
