<?xml version="1.0" encoding="UTF-8" standalone="no"?>
<!-- Generator: Adobe Illustrator 27.5.0, SVG Export Plug-In . SVG Version: 6.00 Build 0)  -->

<svg
   version="1.1"
   id="Capa_1"
   x="0px"
   y="0px"
   viewBox="0 0 792 612"
   style="enable-background:new 0 0 792 612;"
   xml:space="preserve"
   sodipodi:docname="atotonilco_el_grande.svg"
   inkscape:export-filename="Logotipo_Atotonilco24-27_Mesa de trabajo 2.svg"
   inkscape:export-xdpi="96"
   inkscape:export-ydpi="96"
   inkscape:version="1.4 (e7c3feb1, 2024-10-09)"
   xmlns:inkscape="http://www.inkscape.org/namespaces/inkscape"
   xmlns:sodipodi="http://sodipodi.sourceforge.net/DTD/sodipodi-0.dtd"
   xmlns="http://www.w3.org/2000/svg"
   xmlns:svg="http://www.w3.org/2000/svg"><defs
   id="defs63" /><sodipodi:namedview
   id="namedview63"
   pagecolor="#ffffff"
   bordercolor="#000000"
   borderopacity="0.25"
   inkscape:showpageshadow="2"
   inkscape:pageopacity="0.0"
   inkscape:pagecheckerboard="0"
   inkscape:deskcolor="#d1d1d1"
   inkscape:zoom="0.7914796"
   inkscape:cx="313.3372"
   inkscape:cy="385.35422"
   inkscape:window-width="1920"
   inkscape:window-height="1027"
   inkscape:window-x="0"
   inkscape:window-y="25"
   inkscape:window-maximized="1"
   inkscape:current-layer="Capa_1" />
<style
   type="text/css"
   id="style1">
	.st0{fill:#BE1622;}
	.st1{fill:#9D9D9C;}
	.st2{fill:#706F6F;}
	.st3{fill:none;}
	.st4{fill:#FFFFFF;}
</style>










<g
   id="g63"
   transform="translate(222.36833,21.47876)">
	<g
   id="g62">
		<rect
   x="239.66"
   y="399.41"
   class="st3"
   width="8.8199997"
   height="0.55000001"
   id="rect29" />
		<path
   class="st0"
   d="m 217.73,307.69 c -1.36,0 -2.47,1.11 -2.47,2.48 v 15.87 l 4.95,1.83 v -17.7 c -0.01,-1.37 -1.12,-2.48 -2.48,-2.48 z"
   id="path30" />
		<path
   class="st0"
   d="m 250.76,329.55 c 0,-1.01 -0.82,-1.83 -1.83,-1.83 -1.01,0 -1.83,0.82 -1.83,1.83 v 7.98 l 3.66,1.19 v -9.17 z"
   id="path31" />
		<path
   class="st0"
   d="m 189.35,311.19 c 0,-0.48 0.07,-0.95 0.17,-1.4 h -5.13 v 9.86 h 4.96 z"
   id="path32" />
		<polygon
   class="st0"
   points="232.59,328.33 232.59,332.34 234.63,333.07 234.63,318.07 229.71,319.46 229.71,325 "
   id="polygon32" />
		<polygon
   class="st0"
   points="226.83,330.27 227.72,330.59 227.72,328.51 226.94,327.65 226.83,327.84 "
   id="polygon33" />
		<polygon
   class="st0"
   points="229.71,331.3 230.61,331.63 230.61,329.07 229.82,328.17 229.71,328.37 "
   id="polygon34" />
		<rect
   x="178.41"
   y="389.54999"
   class="st0"
   width="4"
   height="9.8599997"
   id="rect34" />
		<polygon
   class="st0"
   points="254.93,340.37 252.75,334.07 252.75,339.59 "
   id="polygon35" />
		<path
   class="st0"
   d="m 195.57,304.97 c 3.43,0 6.22,2.79 6.22,6.22 v 21.22 h -1.75 l 6.69,20.07 v -28.08 -1.36 -23.3 -0.6 -1.72 l 0.02,0.01 c 0.03,-2.51 -0.1,-2.81 -2.27,-2.9 -1.08,-0.04 -1.92,0.16 -2.35,0.57 -0.31,0.3 -0.34,0.64 -0.34,0.65 v 6.36 h -1.89 l -10.13,3.85 0.61,1.82 c 1.1,-1.69 3.01,-2.81 5.19,-2.81 z"
   id="path35" />
		<path
   class="st0"
   d="m 236.62,317.65 v 16.13 l 1.38,0.5 v -6.69 c 0,-1.43 1.16,-2.59 2.59,-2.59 1.43,0 2.59,1.16 2.59,2.59 v 8.55 l 1.94,0.7 v -7.29 c 0,-2.1 1.71,-3.81 3.81,-3.81 0.34,0 0.66,0.06 0.97,0.14 l -3.25,-9.38 z"
   id="path36" />
		<path
   class="st0"
   d="m 183.94,260.24 c 0.08,0 0.16,0.01 0.25,0.01 -9.38,-6.28 -15.56,-16.97 -15.56,-29.07 0,-0.21 0.02,-0.42 0.02,-0.64 -0.75,1.19 -1.83,2.14 -3.1,2.75 l 10.99,32.98 c 0.7,-3.43 3.76,-6.03 7.4,-6.03 z"
   id="path37" />
		<path
   class="st0"
   d="m 165.44,226.5 c 0,-1.75 -1.42,-3.18 -3.18,-3.18 -0.02,0 -0.03,0 -0.05,0 l 1.91,5.73 c 0.8,-0.56 1.32,-1.49 1.32,-2.55 z"
   id="path38" />
		<path
   class="st0"
   d="m 162.27,218.94 c 3.29,0 6.08,2.11 7.12,5.05 2,-9.44 7.85,-17.79 16.3,-22.84 l -2.83,-8.22 -0.82,0.04 c -7.01,0.3 -11.73,-0.26 -14.3,-1.71 -1.04,8.33 -11.69,9.86 -11.81,9.87 l -1.06,0.14 5.94,17.82 c 0.47,-0.1 0.96,-0.15 1.46,-0.15 z"
   id="path39" />
		<path
   class="st0"
   d="m 199.37,330.43 h 0.43 v -19.24 c 0,-2.34 -1.9,-4.24 -4.24,-4.24 -2.34,0 -4.24,1.9 -4.24,4.24 v 8.47 h 4.45 z"
   id="path40" />
		<path
   class="st0"
   d="m 208.71,323.75 4.56,1.64 v -15.23 c 0,-2.46 2,-4.46 4.46,-4.46 2.46,0 4.46,2 4.46,4.46 v 18.43 l 2.33,0.84 v -23.21 l -15.81,-5.94 v 23.47 z"
   id="path41" />
		<path
   class="st0"
   d="m 259.5,368.17 c 0,-0.21 -0.17,-0.38 -0.38,-0.38 h -30.35 c -0.21,0 -0.38,0.17 -0.38,0.38 0,0.21 0.17,0.38 0.38,0.38 h 30.35 c 0.21,0 0.38,-0.17 0.38,-0.38 z"
   id="path42" />
		<path
   class="st0"
   d="m 243.76,366.26 c 0.95,0 1.76,-1.38 1.76,-3.02 0,-1.21 -1.19,-2.35 -1.76,-2.82 -0.57,0.48 -1.76,1.62 -1.76,2.82 0,1.6 0.82,3.02 1.76,3.02 z"
   id="path43" />
		<rect
   x="239.66"
   y="396.20999"
   class="st0"
   width="8.8199997"
   height="3.2"
   id="rect43" />
		<rect
   x="184.39"
   y="389.54999"
   class="st0"
   width="22.34"
   height="9.8599997"
   id="rect44" />
		<path
   class="st0"
   d="m 244.94,377.54 c 4.24,0 7.79,-3.29 8.18,-7.45 h -18.74 c 0.39,4.16 3.94,7.45 8.18,7.45 z"
   id="path44" />
		<path
   class="st0"
   d="m 251.53,394.68 c 4.24,0 7.79,-3.29 8.18,-7.45 H 227.6 c 0.39,4.16 3.94,7.45 8.18,7.45 h 2.35 11.88 z"
   id="path45" />
		<rect
   x="241.21001"
   y="379.20999"
   class="st0"
   width="5.2399998"
   height="3.24"
   id="rect45" />
		<path
   class="st0"
   d="m 271.97,389.55 -16.21,-46.77 -9.96,-3.58 -0.68,-0.22 v -0.02 l -17.38,-6.25 h -0.02 v -0.01 l -5.54,-1.99 v 0.01 l -1.31,-0.49 -12.17,-4.37 v 32.58 l 10.37,31.11 H 208.7 v 9.86 h 29.42 v -3.2 h -2.35 c -5.13,0 -9.33,-3.98 -9.71,-9.01 h -3.42 c -1.31,0 -2.37,-1.07 -2.37,-2.38 0,-1.31 1.07,-2.38 2.37,-2.38 h 17.03 v -3.81 c -3.73,-1.16 -6.5,-4.52 -6.82,-8.55 h -4.09 c -1.06,0 -1.91,-0.86 -1.91,-1.91 0,-1.05 0.86,-1.91 1.91,-1.91 h 12.53 c -0.51,-0.8 -0.83,-1.85 -0.83,-3.02 0,-1.75 1.38,-3.2 2.22,-3.92 v -3.91 h 2.14 v 3.91 c 0.84,0.72 2.22,2.17 2.22,3.92 0,1.17 -0.33,2.22 -0.85,3.02 h 12.92 c 1.06,0 1.91,0.86 1.91,1.91 0,1.05 -0.86,1.91 -1.91,1.91 h -4.46 c -0.31,3.98 -3.01,7.29 -6.67,8.5 v 3.87 h 17.25 c 1.31,0 2.38,1.07 2.38,2.38 0,1.31 -1.07,2.38 -2.38,2.38 h -3.99 c -0.38,5.03 -4.59,9.01 -9.71,9.01 h -1.52 v 3.2 h 32.83 v -9.86 h -10.87 z"
   id="path46" />
		<rect
   x="284.82999"
   y="389.54999"
   class="st0"
   width="18.33"
   height="9.8599997"
   id="rect46" />
		<path
   class="st0"
   d="m 114.45,309.79 39.88,-110.14 v 0.01 c 0.01,-3.74 1.14,-6.71 3.34,-8.82 2.64,-2.52 6.07,-3.06 7.76,-3.17 0.04,-0.98 0.47,-1.99 1.26,-2.91 1.59,-1.83 8.22,-3.55 13.03,-4.6 -1.43,-2.12 -2.83,-4.86 -2.49,-7.01 -3.93,-0.1 -7.1,-3.32 -7.1,-7.28 0,-4.02 3.27,-7.29 7.29,-7.29 4.02,0 7.29,3.27 7.29,7.29 0,1.38 -0.39,2.66 -1.06,3.76 1.75,0.14 3.41,0.63 4.41,0.98 1.38,0.49 2.94,1.84 4.44,3.15 0.75,0.65 1.99,1.72 2.45,1.93 0.18,0 0.42,-0.01 0.68,-0.02 0.75,-0.03 1.5,-0.05 2.2,-0.04 L 181.94,129.78 H 168.13 L 99.09,319.9 73.79,389.55 H 42.21 v 9.86 h 83.7 v -9.86 H 85.64 l 24.47,-69.89 h 72.29 v -9.86 h -67.95 z"
   id="path47" />
		<path
   class="st0"
   d="m 266.08,384.82 c 0,-0.47 -0.38,-0.84 -0.85,-0.84 h -17.25 -8.3 -17.03 c -0.47,0 -0.84,0.38 -0.84,0.84 0,0.46 0.38,0.84 0.84,0.84 h 42.59 c 0.46,0.01 0.84,-0.37 0.84,-0.84 z"
   id="path48" />
		<path
   class="st0"
   d="m 185.13,192.15 3.02,8.76 0.03,0.04 0.09,0.29 c 0.16,0.61 -0.1,1.26 -0.66,1.58 -10.23,5.78 -16.58,16.65 -16.58,28.37 0,17.96 14.61,32.56 32.56,32.56 8.4,0 16.07,-3.2 21.86,-8.45 l -22.84,-65.92 c -3.98,0.27 -12.37,1.77 -17.48,2.77 z"
   id="path49" />
		<path
   class="st0"
   d="m 157.26,197.94 c 2.64,-0.74 7.3,-2.71 7.71,-7.4 -1.41,0.18 -3.66,0.72 -5.35,2.33 -1.29,1.25 -2.08,2.95 -2.36,5.07 z"
   id="path50" />
		<path
   class="st0"
   d="m 241.2,327.6 c 0,-0.34 -0.27,-0.61 -0.61,-0.61 -0.33,0 -0.61,0.27 -0.61,0.61 v 7.4 l 1.21,0.44 v -7.84 z"
   id="path51" />
		<path
   class="st0"
   d="m 221.88,264.72 c -0.5,0.45 -0.94,0.96 -1.37,1.45 -0.63,0.73 -1.23,1.42 -2,1.92 -0.93,0.61 -2.08,0.86 -3.2,0.76 -0.05,-0.35 -0.08,-0.7 -0.08,-1.05 0,-1.52 0.45,-2.93 1.22,-4.11 -3.98,1.58 -8.32,2.46 -12.86,2.46 -5.37,0 -10.45,-1.22 -15,-3.39 -1.98,-0.08 -4.01,0.59 -5.56,1.96 -0.5,0.45 -0.94,0.96 -1.37,1.45 -0.63,0.73 -1.23,1.42 -2,1.92 -0.68,0.44 -1.46,0.69 -2.27,0.76 l 1.46,4.38 c 0.93,-0.05 1.86,-0.33 2.63,-0.86 0.8,-0.54 1.42,-1.29 2.02,-2.01 0.4,-0.48 0.82,-0.98 1.28,-1.41 1.84,-1.7 4.44,-2.27 6.7,-1.56 0.01,0.13 0.02,0.26 0.02,0.4 0,4.17 -3.39,7.56 -7.56,7.56 -1.94,0 -3.69,-0.75 -5.03,-1.96 l 10.23,30.71 10.65,-3.98 v -4.4 c 0,-0.12 0.03,-1.17 0.95,-2.06 0.84,-0.81 2.15,-1.19 3.8,-1.13 0.02,0 0.03,0 0.04,0 v -6.35 l -3.77,-1.74 0.92,-1.99 2.86,1.32 v -3.03 h 2.19 v 4.04 l 4.76,2.19 -0.92,1.99 -3.84,-1.77 v 5.75 c 1.99,0.8 1.97,2.68 1.93,4.93 0,0.09 0,0.19 0,0.28 l 17.79,6.68 v 19.65 l 0.09,-0.16 1.13,1.23 v -7.61 l 7.63,-2.15 10.64,-1.23 -15.76,-45.48 c -0.62,3.55 -3.72,6.27 -7.44,6.27 -2.03,0 -3.87,-0.81 -5.23,-2.12 0.98,-0.02 1.96,-0.32 2.78,-0.87 0.8,-0.54 1.42,-1.29 2.02,-2.01 0.4,-0.48 0.82,-0.98 1.28,-1.41 1.64,-1.51 3.88,-2.13 5.95,-1.74 l -1.53,-4.4 c -2.17,-0.25 -4.47,0.41 -6.18,1.92 z"
   id="path52" />
		<path
   class="st0"
   d="m 227.85,262.2 -1.54,-4.45 c -1.05,0.9 -2.15,1.73 -3.3,2.5 1.86,0.06 3.54,0.79 4.84,1.95 z"
   id="path53" />
		<path
   class="st0"
   d="m 177.42,161.4 c -2.46,0 -4.47,2 -4.47,4.47 0,2.46 2,4.47 4.47,4.47 2.46,0 4.47,-2 4.47,-4.47 0,-2.47 -2.01,-4.47 -4.47,-4.47 z"
   id="path54" />
		<path
   class="st0"
   d="m 195.77,178.51 c -0.37,0.01 -0.69,0.02 -0.92,0.02 -1.19,0 -2.46,-1.1 -4.21,-2.62 -1.19,-1.03 -2.66,-2.31 -3.53,-2.62 -2.51,-0.89 -5.85,-1.4 -6.99,0.06 -0.65,0.84 1.16,4.37 3.16,6.85 l 1.47,1.84 -2.31,0.45 c -5.82,1.15 -12.68,3.06 -13.61,4.13 -0.13,0.15 -0.76,0.92 -0.5,1.45 0.13,0.26 1.59,2.55 13.46,2.05 h 0.1 l -0.03,-0.07 1.92,-0.09 c 1.76,-0.35 12.38,-2.43 18.01,-2.92 l -2.96,-8.53 c -0.73,-0.04 -1.72,-0.05 -3.06,0 z"
   id="path55" />
		<rect
   x="282.85001"
   y="389.54999"
   class="st4"
   width="1.98"
   height="9.8599997"
   id="rect55" />
		<rect
   x="182.39999"
   y="309.79001"
   class="st4"
   width="1.98"
   height="9.8599997"
   id="rect56" />
		<path
   class="st4"
   d="m 227.72,317.96 v 7.61 l -1.13,-1.23 -0.09,0.16 v -19.65 l -17.79,-6.68 c 0,-0.09 0,-0.19 0,-0.28 0.04,-2.25 0.06,-4.13 -1.93,-4.93 v -5.75 l 3.84,1.77 0.92,-1.99 -4.76,-2.19 v -4.04 h -2.19 v 3.03 l -2.86,-1.32 -0.92,1.99 3.77,1.74 v 6.35 c -0.02,0 -0.03,0 -0.04,0 -1.65,-0.06 -2.96,0.31 -3.8,1.13 -0.92,0.89 -0.95,1.94 -0.95,2.06 v 4.4 l -10.65,3.98 0.62,1.85 10.13,-3.85 h 1.89 v -6.36 c 0,-0.01 0.03,-0.35 0.34,-0.65 0.43,-0.42 1.28,-0.62 2.35,-0.57 2.16,0.09 2.3,0.39 2.27,2.9 l -0.02,-0.01 v 1.72 0.6 23.3 1.36 28.08 l 1.98,5.96 v -32.58 l 12.17,4.37 1.31,0.49 v -0.01 l 5.54,1.99 v 0.01 h 0.02 l 17.38,6.25 v 0.02 l 0.68,0.22 9.96,3.58 -0.83,-2.41 -2.18,-0.78 v -5.51 l -2.84,-8.19 c -0.31,-0.08 -0.64,-0.14 -0.97,-0.14 -2.1,0 -3.81,1.71 -3.81,3.81 v 7.29 l -1.94,-0.7 v -8.55 c 0,-1.43 -1.16,-2.59 -2.59,-2.59 -1.43,0 -2.59,1.16 -2.59,2.59 v 6.69 l -1.38,-0.5 v -16.13 l 10.04,-1.15 -0.66,-1.92 -10.64,1.23 z m -7.52,9.91 -4.95,-1.83 v -15.87 c 0,-1.36 1.11,-2.48 2.47,-2.48 1.36,0 2.47,1.11 2.47,2.48 v 17.7 z m 4.32,1.57 -2.33,-0.84 v -18.43 c 0,-2.46 -2,-4.46 -4.46,-4.46 -2.46,0 -4.46,2 -4.46,4.46 v 15.23 l -4.56,-1.64 v -23.47 l 15.81,5.94 v 23.21 z m 3.2,1.15 -0.9,-0.32 v -2.43 l 0.11,-0.19 0.79,0.85 z m 2.89,1.04 -0.9,-0.32 v -2.93 l 0.12,-0.21 0.78,0.9 z m 4.02,1.44 -2.04,-0.73 v -4.01 l -2.88,-3.32 v -5.54 l 4.93,-1.4 v 15 z m 12.48,-3.52 c 0,-1.01 0.82,-1.83 1.83,-1.83 1.01,0 1.83,0.82 1.83,1.83 v 9.17 l -3.66,-1.19 v -7.98 z m -7.12,-1.95 c 0,-0.34 0.27,-0.61 0.61,-0.61 0.33,0 0.61,0.27 0.61,0.61 v 7.84 L 240,335 v -7.4 z"
   id="path56" />
		<rect
   x="206.72"
   y="389.54999"
   class="st4"
   width="1.98"
   height="9.8599997"
   id="rect57" />
		<rect
   x="182.39999"
   y="389.54999"
   class="st4"
   width="1.98"
   height="9.8599997"
   id="rect58" />
		<path
   class="st4"
   d="m 201.79,311.19 c 0,-3.43 -2.79,-6.22 -6.22,-6.22 -2.17,0 -4.09,1.13 -5.2,2.82 l 0.67,2 h -1.52 c -0.1,0.45 -0.17,0.92 -0.17,1.4 v 8.47 h 1.98 v -8.47 c 0,-2.34 1.9,-4.24 4.24,-4.24 2.34,0 4.24,1.9 4.24,4.24 v 19.24 h -0.43 l 0.66,1.98 h 1.75 z"
   id="path58" />
		<path
   class="st4"
   d="m 194.96,175.68 c -0.47,-0.2 -1.7,-1.27 -2.45,-1.93 -1.51,-1.31 -3.06,-2.66 -4.44,-3.15 -1,-0.35 -2.66,-0.84 -4.41,-0.98 0.67,-1.1 1.06,-2.39 1.06,-3.76 0,-4.02 -3.27,-7.29 -7.29,-7.29 -4.02,0 -7.29,3.27 -7.29,7.29 0,3.96 3.17,7.18 7.1,7.28 -0.34,2.15 1.07,4.89 2.49,7.01 -4.82,1.05 -11.44,2.77 -13.03,4.6 -0.8,0.91 -1.22,1.93 -1.26,2.91 -1.69,0.11 -5.12,0.65 -7.76,3.17 -2.2,2.11 -3.33,5.08 -3.34,8.82 l 0.54,1.61 1.06,-0.14 c 0.12,-0.02 10.77,-1.54 11.81,-9.87 2.57,1.45 7.3,2.01 14.3,1.71 l 0.82,-0.04 2.83,8.22 c -8.45,5.05 -14.3,13.39 -16.3,22.84 -1.04,-2.93 -3.84,-5.05 -7.12,-5.05 -0.5,0 -0.99,0.05 -1.46,0.14 l 1.42,4.25 c 0.02,0 0.03,0 0.05,0 1.75,0 3.18,1.43 3.18,3.18 0,1.05 -0.52,1.98 -1.31,2.56 l 1.41,4.24 c 1.27,-0.62 2.35,-1.57 3.1,-2.75 0,0.21 -0.02,0.42 -0.02,0.64 0,12.11 6.19,22.79 15.56,29.07 -0.08,0 -0.16,-0.01 -0.25,-0.01 -3.65,0 -6.7,2.6 -7.41,6.04 l 0.86,2.57 c 0.81,-0.07 1.59,-0.32 2.27,-0.76 0.77,-0.5 1.37,-1.19 2,-1.92 0.43,-0.49 0.87,-1.01 1.37,-1.45 1.54,-1.37 3.57,-2.04 5.56,-1.96 4.55,2.17 9.64,3.39 15,3.39 4.54,0 8.87,-0.88 12.86,-2.46 -0.77,1.18 -1.22,2.6 -1.22,4.11 0,0.36 0.03,0.71 0.08,1.05 1.12,0.1 2.26,-0.15 3.2,-0.76 0.77,-0.5 1.37,-1.19 2,-1.92 0.43,-0.49 0.87,-1.01 1.37,-1.45 1.71,-1.52 4,-2.17 6.18,-1.9 l -0.21,-0.62 c -1.29,-1.16 -2.98,-1.89 -4.84,-1.95 1.15,-0.77 2.25,-1.61 3.3,-2.5 l -0.85,-2.45 c -5.78,5.25 -13.45,8.45 -21.86,8.45 -17.95,0 -32.56,-14.61 -32.56,-32.56 0,-11.72 6.35,-22.59 16.58,-28.37 0.55,-0.32 0.82,-0.97 0.66,-1.58 l -0.09,-0.29 -0.03,-0.04 -3.02,-8.76 c 5.11,-1 13.5,-2.5 17.48,-2.77 l -0.81,-2.34 c -5.63,0.49 -16.26,2.57 -18.01,2.92 l -1.92,0.09 0.03,0.07 h -0.1 c -11.87,0.5 -13.33,-1.79 -13.46,-2.05 -0.26,-0.53 0.38,-1.3 0.5,-1.45 0.93,-1.07 7.79,-2.98 13.61,-4.13 l 2.31,-0.45 -1.47,-1.84 c -1.99,-2.48 -3.81,-6.02 -3.16,-6.85 1.14,-1.46 4.48,-0.95 6.99,-0.06 0.87,0.31 2.35,1.59 3.53,2.62 1.75,1.52 3.02,2.62 4.21,2.62 0.23,0 0.54,-0.01 0.92,-0.02 1.34,-0.05 2.33,-0.04 3.07,0 l -1,-2.88 c -0.71,-0.01 -1.45,0.01 -2.2,0.04 -0.31,-0.01 -0.54,0 -0.72,0 z m -37.7,22.26 c 0.27,-2.13 1.06,-3.83 2.36,-5.06 1.69,-1.62 3.94,-2.16 5.35,-2.33 -0.41,4.68 -5.07,6.65 -7.71,7.39 z m 20.16,-27.6 c -2.46,0 -4.47,-2 -4.47,-4.47 0,-2.46 2,-4.47 4.47,-4.47 2.46,0 4.47,2 4.47,4.47 0,2.46 -2.01,4.47 -4.47,4.47 z"
   id="path59" />
		<path
   class="st4"
   d="m 183.94,275.37 c 4.17,0 7.56,-3.39 7.56,-7.56 0,-0.14 -0.01,-0.27 -0.02,-0.4 -2.25,-0.72 -4.86,-0.14 -6.7,1.56 -0.46,0.42 -0.88,0.92 -1.28,1.41 -0.6,0.72 -1.22,1.47 -2.02,2.01 -0.78,0.53 -1.7,0.81 -2.63,0.86 l 0.06,0.17 c 1.34,1.2 3.1,1.95 5.03,1.95 z"
   id="path60" />
		<path
   class="st4"
   d="m 223.64,268.96 c -0.46,0.42 -0.87,0.92 -1.28,1.41 -0.6,0.72 -1.22,1.47 -2.02,2.01 -0.82,0.56 -1.8,0.85 -2.78,0.87 1.36,1.31 3.2,2.12 5.23,2.12 3.73,0 6.83,-2.71 7.44,-6.27 l -0.65,-1.88 c -2.06,-0.39 -4.3,0.23 -5.94,1.74 z"
   id="path61" />
		<path
   class="st4"
   d="m 251.53,396.21 c 5.13,0 9.33,-3.98 9.71,-9.01 h 3.99 c 1.31,0 2.38,-1.07 2.38,-2.38 0,-1.31 -1.07,-2.38 -2.38,-2.38 h -17.25 v -3.87 c 3.66,-1.2 6.36,-4.52 6.67,-8.5 h 4.46 c 1.06,0 1.91,-0.86 1.91,-1.91 0,-1.05 -0.86,-1.91 -1.91,-1.91 H 246.2 c 0.52,-0.81 0.85,-1.86 0.85,-3.02 0,-1.75 -1.38,-3.2 -2.22,-3.92 v -3.91 h -2.14 v 3.91 c -0.84,0.72 -2.22,2.17 -2.22,3.92 0,1.18 0.32,2.22 0.83,3.02 h -12.53 c -1.06,0 -1.91,0.86 -1.91,1.91 0,1.05 0.86,1.91 1.91,1.91 h 4.09 c 0.31,4.03 3.08,7.39 6.82,8.55 v 3.81 h -17.03 c -1.31,0 -2.37,1.07 -2.37,2.38 0,1.31 1.07,2.38 2.37,2.38 h 3.42 c 0.38,5.03 4.59,9.01 9.71,9.01 h 2.35 v 3.2 h 1.53 v -3.2 h 8.82 v 3.2 h 1.53 v -3.2 h 1.52 z m -7.77,-35.8 c 0.57,0.48 1.76,1.62 1.76,2.82 0,1.64 -0.8,3.02 -1.76,3.02 -0.94,0 -1.76,-1.41 -1.76,-3.02 0,-1.2 1.19,-2.34 1.76,-2.82 z m -14.99,8.14 c -0.21,0 -0.38,-0.17 -0.38,-0.38 0,-0.21 0.17,-0.38 0.38,-0.38 h 30.35 c 0.21,0 0.38,0.17 0.38,0.38 0,0.21 -0.17,0.38 -0.38,0.38 z m 5.62,1.54 h 18.74 c -0.39,4.16 -3.94,7.45 -8.18,7.45 h -2.37 c -4.25,0 -7.8,-3.29 -8.19,-7.45 z m 12.06,9.12 v 3.24 h -5.24 v -3.24 z m -23.8,6.46 c -0.47,0 -0.84,-0.38 -0.84,-0.84 0,-0.46 0.38,-0.84 0.84,-0.84 h 17.03 8.3 17.25 c 0.47,0 0.85,0.38 0.85,0.84 0,0.46 -0.38,0.84 -0.85,0.84 z m 15.48,9.01 h -2.35 c -4.24,0 -7.79,-3.29 -8.18,-7.45 h 32.12 c -0.39,4.16 -3.94,7.45 -8.18,7.45 h -1.52 z"
   id="path62" />
	</g>
	<polygon
   class="st1"
   points="125.91,399.41 125.91,389.55 85.64,389.55 110.11,319.66 99.09,319.66 70.22,399.41 "
   id="polygon62" />
</g>
</svg>
